<svg id="visual" viewBox="0 0 900 600" width="900" height="600" xmlns="http://www.w3.org/2000/svg" xmlns:xlink="http://www.w3.org/1999/xlink" version="1.1"><rect x="0" y="0" width="900" height="600" fill="#ffffff"></rect><defs><linearGradient id="grad1_0" x1="33.3%" y1="0%" x2="100%" y2="100%"><stop offset="20%" stop-color="#6600ff" stop-opacity="1"></stop><stop offset="80%" stop-color="#6600ff" stop-opacity="1"></stop></linearGradient></defs><defs><linearGradient id="grad1_1" x1="33.3%" y1="0%" x2="100%" y2="100%"><stop offset="20%" stop-color="#6600ff" stop-opacity="1"></stop><stop offset="80%" stop-color="#c391ff" stop-opacity="1"></stop></linearGradient></defs><defs><linearGradient id="grad1_2" x1="33.3%" y1="0%" x2="100%" y2="100%"><stop offset="20%" stop-color="#ffffff" stop-opacity="1"></stop><stop offset="80%" stop-color="#c391ff" stop-opacity="1"></stop></linearGradient></defs><defs><linearGradient id="grad2_0" x1="0%" y1="0%" x2="66.7%" y2="100%"><stop offset="20%" stop-color="#6600ff" stop-opacity="1"></stop><stop offset="80%" stop-color="#6600ff" stop-opacity="1"></stop></linearGradient></defs><defs><linearGradient id="grad2_1" x1="0%" y1="0%" x2="66.7%" y2="100%"><stop offset="20%" stop-color="#c391ff" stop-opacity="1"></stop><stop offset="80%" stop-color="#6600ff" stop-opacity="1"></stop></linearGradient></defs><defs><linearGradient id="grad2_2" x1="0%" y1="0%" x2="66.7%" y2="100%"><stop offset="20%" stop-color="#c391ff" stop-opacity="1"></stop><stop offset="80%" stop-color="#ffffff" stop-opacity="1"></stop></linearGradient></defs><g transform="translate(900, 0)"><path d="M0 378.6C-71 371.5 -142.1 364.3 -189.3 327.9C-236.5 291.4 -259.9 225.5 -287.5 166C-315.1 106.5 -346.8 53.2 -378.6 0L0 0Z" fill="#e4c8ff"></path><path d="M0 252.4C-47.4 247.6 -94.7 242.9 -126.2 218.6C-157.7 194.3 -173.3 150.4 -191.7 110.7C-210.1 71 -231.2 35.5 -252.4 0L0 0Z" fill="#9c58ff"></path><path d="M0 126.2C-23.7 123.8 -47.4 121.4 -63.1 109.3C-78.8 97.1 -86.6 75.2 -95.8 55.3C-105 35.5 -115.6 17.7 -126.2 0L0 0Z" fill="#6600ff"></path></g><g transform="translate(0, 600)"><path d="M0 -378.6C74.7 -373.6 149.5 -368.6 189.3 -327.9C229.1 -287.1 234.1 -210.6 259.8 -150C285.5 -89.4 332.1 -44.7 378.6 0L0 0Z" fill="#e4c8ff"></path><path d="M0 -252.4C49.8 -249.1 99.6 -245.7 126.2 -218.6C152.8 -191.4 156 -140.4 173.2 -100C190.4 -59.6 221.4 -29.8 252.4 0L0 0Z" fill="#9c58ff"></path><path d="M0 -126.2C24.9 -124.5 49.8 -122.9 63.1 -109.3C76.4 -95.7 78 -70.2 86.6 -50C95.2 -29.8 110.7 -14.9 126.2 0L0 0Z" fill="#6600ff"></path></g></svg>